<?xml version="1.0" encoding="UTF-8"?>
<svg xmlns="http://www.w3.org/2000/svg" width="1200" height="760" viewBox="0 0 1200 760" role="img" aria-labelledby="title desc">
  <title id="title">Qwen3.8 Next 5090 Lab v0.2 candidate architecture</title>
  <desc id="desc">An unreleased and not yet hardware-validated 256K image candidate. Structured text and image requests enter the tokenizer and Qwen vision tower. Visual embeddings are injected before four residual streams pass through 36 gated delta network layers and 12 query-selective attention layers. QSA keeps one index key per four tokens and uses a bounded SM120 top-512 selector. Sparse PLE rows stream from NVMe through native io_uring and O_DIRECT into a bounded host LRU, double-buffered pinned FP8 staging, and GPU BF16 decode. Routed NVFP4 experts use heterogeneous CPU, host memory, PCIe, and GPU cache paths; candidate prefill preserves raw expert IDs, moves active rows for large banks, and copies small banks whole.</desc>
  <defs>
    <linearGradient id="bg" x1="0" y1="0" x2="1" y2="1">
      <stop offset="0" stop-color="#0b1020"/>
      <stop offset="1" stop-color="#151d38"/>
    </linearGradient>
    <linearGradient id="gpu" x1="0" y1="0" x2="1" y2="0">
      <stop offset="0" stop-color="#1f6feb"/>
      <stop offset="1" stop-color="#7c3aed"/>
    </linearGradient>
    <linearGradient id="host" x1="0" y1="0" x2="1" y2="0">
      <stop offset="0" stop-color="#0f766e"/>
      <stop offset="1" stop-color="#059669"/>
    </linearGradient>
    <marker id="arrow" viewBox="0 0 10 10" refX="9" refY="5" markerWidth="7" markerHeight="7" orient="auto-start-reverse">
      <path d="M 0 0 L 10 5 L 0 10 z" fill="#a5b4fc"/>
    </marker>
    <style>
      .title { font: 700 28px ui-sans-serif, system-ui, -apple-system, "Segoe UI", sans-serif; fill: #f8fafc; }
      .subtitle { font: 500 15px ui-sans-serif, system-ui, -apple-system, "Segoe UI", sans-serif; fill: #a5b4fc; }
      .label { font: 700 17px ui-sans-serif, system-ui, -apple-system, "Segoe UI", sans-serif; fill: #f8fafc; }
      .body { font: 500 14px ui-sans-serif, system-ui, -apple-system, "Segoe UI", sans-serif; fill: #dbeafe; }
      .small { font: 500 12px ui-sans-serif, system-ui, -apple-system, "Segoe UI", sans-serif; fill: #cbd5e1; }
      .chip { font: 700 12px ui-sans-serif, system-ui, -apple-system, "Segoe UI", sans-serif; fill: #e0e7ff; }
      .box { stroke: #64748b; stroke-width: 1.4; rx: 14; }
      .arrow { fill: none; stroke: #a5b4fc; stroke-width: 2.2; marker-end: url(#arrow); }
      .dashed { fill: none; stroke: #5eead4; stroke-width: 2; stroke-dasharray: 7 6; marker-end: url(#arrow); }
    </style>
  </defs>

  <rect width="1200" height="760" rx="24" fill="url(#bg)"/>
  <text class="title" x="48" y="52">Qwen3.8 Next 5090 Lab</text>
  <text class="subtitle" x="48" y="78">v0.2 source candidate · NOT hardware validated · 262,144 total tokens · images · TP=1 · max-running=1 · graph=0</text>

  <rect class="box" x="48" y="118" width="220" height="105" fill="#172554"/>
  <text class="label" x="70" y="151">Local client</text>
  <text class="body" x="70" y="178">OpenAI-compatible API</text>
  <text class="small" x="70" y="202">127.0.0.1 by default</text>

  <rect class="box" x="322" y="118" width="250" height="105" fill="#1e293b"/>
  <text class="label" x="344" y="151">Tokenizer + scheduler</text>
  <text class="body" x="344" y="178">Text + validated image bytes</text>
  <text class="small" x="344" y="202">processor · mRoPE · 512-token chunks</text>

  <rect class="box" x="626" y="102" width="526" height="137" fill="url(#gpu)"/>
  <text class="label" x="650" y="135">Qwen4-Exp candidate on RTX 5090</text>
  <rect x="650" y="154" width="155" height="50" rx="10" fill="#312e81" stroke="#c4b5fd"/>
  <text class="body" x="669" y="177">Text embedding</text>
  <text class="small" x="669" y="195">image placeholders</text>
  <rect x="829" y="154" width="146" height="50" rx="10" fill="#312e81" stroke="#c4b5fd"/>
  <text class="body" x="848" y="177">Vision ×27</text>
  <text class="small" x="848" y="195">patches + merger</text>
  <rect x="999" y="154" width="129" height="50" rx="10" fill="#312e81" stroke="#c4b5fd"/>
  <text class="body" x="1018" y="177">Inject image</text>
  <text class="small" x="1018" y="195">then replicate ×4</text>

  <path class="arrow" d="M268 170 H322"/>
  <path class="arrow" d="M572 170 H626"/>
  <path class="arrow" d="M805 179 H999"/>
  <path class="arrow" d="M975 179 H999"/>
  <path class="dashed" d="M572 188 C650 250 847 250 902 204"/>

  <rect class="box" x="48" y="284" width="526" height="202" fill="#111827"/>
  <text class="label" x="72" y="317">Layer attention paths</text>
  <rect x="72" y="339" width="218" height="112" rx="12" fill="#1e3a8a" stroke="#60a5fa"/>
  <text class="body" x="92" y="368">36 × GDN</text>
  <text class="small" x="92" y="393">linear recurrent state</text>
  <text class="small" x="92" y="414">sigmoid output gate</text>
  <text class="small" x="92" y="435">request-local state pool</text>
  <rect x="314" y="339" width="236" height="112" rx="12" fill="#4c1d95" stroke="#c084fc"/>
  <text class="body" x="334" y="368">12 × QSA</text>
  <text class="small" x="334" y="393">one index key / 4 tokens</text>
  <text class="small" x="334" y="414">128 MiB · SM120 top-512</text>
  <text class="small" x="334" y="435">6.1875 GiB K/V + index cache</text>

  <rect class="box" x="626" y="284" width="526" height="202" fill="url(#gpu)"/>
  <text class="label" x="650" y="317">Mixture of Experts</text>
  <rect x="650" y="339" width="194" height="112" rx="12" fill="#312e81" stroke="#c4b5fd"/>
  <text class="body" x="670" y="368">Router</text>
  <text class="small" x="670" y="393">512 routed experts</text>
  <text class="small" x="670" y="414">softmax top-10</text>
  <text class="small" x="670" y="435">+ shared expert</text>
  <rect x="868" y="339" width="260" height="112" rx="12" fill="#312e81" stroke="#c4b5fd"/>
  <text class="body" x="888" y="368">Heterogeneous offload</text>
  <text class="small" x="888" y="393">raw-ID active rows · large banks</text>
  <text class="small" x="888" y="414">small banks copy whole layer</text>
  <text class="small" x="888" y="435">pinned DMA · 64 MiB bounce</text>

  <rect class="box" x="48" y="535" width="1104" height="163" fill="url(#host)"/>
  <text class="label" x="72" y="568">Candidate PLE NVMe path · layer 2 (one-indexed)</text>
  <rect x="72" y="592" width="204" height="72" rx="11" fill="#064e3b" stroke="#6ee7b7"/>
  <text class="body" x="91" y="618">Native direct reads</text>
  <text class="small" x="91" y="641">io_uring + O_DIRECT · ext4</text>
  <rect x="310" y="592" width="204" height="72" rx="11" fill="#064e3b" stroke="#6ee7b7"/>
  <text class="body" x="329" y="618">Bounded native LRU</text>
  <text class="small" x="329" y="641">4 GiB · next-chunk prefetch</text>
  <rect x="548" y="592" width="204" height="72" rx="11" fill="#064e3b" stroke="#6ee7b7"/>
  <text class="body" x="567" y="618">Pinned FP8 staging</text>
  <text class="small" x="567" y="641">double buffered · sparse rows</text>
  <rect x="786" y="592" width="342" height="72" rx="11" fill="#312e81" stroke="#c4b5fd"/>
  <text class="body" x="805" y="618">GPU FP8 decode → BF16 + PLE</text>
  <text class="small" x="805" y="641">projection/convolution · request-local state</text>
  <path class="dashed" d="M276 628 H310"/>
  <path class="dashed" d="M514 628 H548"/>
  <path class="dashed" d="M752 628 H786"/>
  <path class="dashed" d="M957 592 C957 528 891 518 891 486"/>

  <text class="small" x="48" y="731">Candidate only: the full ~51 GB PLE table stays file-backed; images bypass shared prefix cache; video, audio, MTP and radix cache remain disabled.</text>
</svg>
